<svg clip-rule="evenodd" fill-rule="evenodd" height="180" stroke-linejoin="round" stroke-miterlimit="2" viewBox="0 0 600 180" width="600" xmlns="http://www.w3.org/2000/svg"><g fill-rule="nonzero"><g fill="#00aeef"><path d="m169.2 82.4c.2-6.9-1.1-12.5-3.9-16.9-1.9-2.9-4.5-5-7.6-6.1-3.3-1.2-7.7-1.8-13.1-1.8h-17.3c-.3 0-.5.2-.5.4l-28 102.2c0 .2 0 .3.1.5.1.1.3.2.4.2h11.4c13.2 0 23.2-2.3 29.6-6.8 5.2-3.6 9.7-8.9 13.4-15.7 3.8-7.1 7.3-16.4 10.4-27.7 3.2-12.1 4.9-21.7 5.1-28.3zm-51.9 65.5 21.2-77.5h1.3c7.4 0 11.5 2.8 12.7 8.4 1.2 5.8-.4 16.7-4.6 32.3-4 14.5-8.2 24.4-12.5 29.4-4 4.7-10.1 7.2-18.1 7.4z"/><path d="m211.6 125.8c1.7-6.2 2.8-11.7 3.1-16.2.4-4.6 0-8.4-1-11.4-1-3.1-2.8-5.4-5.3-6.8-2.5-1.5-5.7-2.2-9.6-2.2-14.8 0-25.7 12.1-32.2 35.8-4.1 14.9-3.9 25.3.5 30.9 2.6 3.4 6.8 5.1 12.4 5.1 14.9 0 25.7-11.8 32.1-35.2zm-28.6 22.3c-2.8 0-4.3-1.6-4.6-4.8-.3-3.4.8-9.5 3.2-18.2s4.7-14.9 6.8-18.3c2.2-3.3 4.7-5 7.6-5 2.8 0 4.3 1.5 4.5 4.9.2 3.5-.9 9.7-3.3 18.6-2.4 8.7-4.7 14.7-6.8 17.9-2.1 3.3-4.6 4.9-7.4 4.9z"/><path d="m293.9 94.3c-2-2.7-5.6-4-10.7-4-6.1 0-11.8 3-16.9 8.8-.9-5.9-4.6-8.8-10.9-8.8-5.5 0-10.7 2.7-15.7 8l1.7-6.2c0-.2 0-.3-.1-.5-.1-.1-.3-.2-.4-.2h-12.9c-.3 0-.5.2-.5.4l-18.8 68.5c0 .2 0 .3.1.5.1.1.3.2.4.2h12.9c.3 0 .5-.2.5-.4l12.4-45.1c1.3-4.7 2.8-8 4.6-9.9 1.7-1.9 3.9-2.8 6.8-2.8 1.3 0 2.3.2 3.1.6.7.4 1.2 1 1.4 1.9.3.9.3 2.2.1 3.8s-.6 3.7-1.3 6.1l-12.4 45.1c0 .2 0 .3.1.5.1.1.3.2.4.2h13.4c.3 0 .5-.2.5-.4l12.4-45.1c1.4-5 2.8-8.4 4.3-10.1s3.8-2.6 6.7-2.6c2.5 0 3.9.8 4.3 2.3.5 1.7 0 5.1-1.4 10.1l-12.4 45.1c0 .2 0 .3.1.5.1.1.3.2.4.2h13c.3 0 .5-.2.5-.4l15-54.6c1.6-5.1 1.3-9-.7-11.7z"/><path d="m349.2 90.5c-.1-.1-.3-.2-.4-.2h-12.9c-.3 0-.5.2-.5.4l-1.6 6c-1.9-5-5.4-7.5-10.4-7.5-6 0-11.2 2.9-15.5 8.6-4.3 5.6-8.1 14.5-11.3 26.4-3.4 12.5-4.6 21.8-3.5 27.7 1.2 6.1 4.8 9.2 10.9 9.2 3.1 0 5.9-.7 8.2-2.2 1.8-1.2 3.9-3.1 6.1-5.8l-1.7 6.2c0 .2 0 .3.1.5.1.1.3.2.4.2h12.9c.3 0 .5-.2.5-.4l18.8-68.6c.1-.1 0-.3-.1-.5zm-22.9 34.5c-2.2 8.2-4.6 14.3-6.9 18.2-2.2 3.5-4.7 5.3-7.4 5.3-2.8 0-4.4-1.6-4.6-4.9-.2-3.5.9-9.8 3.3-18.7s4.7-15 6.9-18.2c2.2-3.3 4.7-5 7.6-5 2.6 0 4 1.7 4.2 5.1.2 3.9-.8 10-3.1 18.2z"/><path d="m369.7 91.6c-.1-.1-.3-.2-.4-.2h-13c-.3 0-.5.2-.5.4l-18.8 68.5c0 .2 0 .3.1.5.1.1.3.2.4.2h13c.3 0 .5-.2.5-.4l18.8-68.5c.1-.2 0-.4-.1-.5z"/><path d="m365.5 80.5c2.6 0 5-.9 7.3-2.6s3.8-3.9 4.4-6.4c.7-2.5.3-4.7-1-6.5-1.4-1.8-3.3-2.7-5.9-2.7-2.5 0-4.9.9-7.3 2.6-2.3 1.7-3.7 3.8-4.4 6.2-.7 2.6-.4 4.9.9 6.6 1.4 1.9 3.4 2.8 6 2.8z"/></g><g fill="#40444e"><path d="m435.5 57.9c-.1-.1-.3-.2-.4-.2h-14.2c-.3 0-.5.2-.5.4l-10.5 38.1c-1.5 5.6-2.9 11.7-4.1 18.1-.7 3.8-1.4 7.8-2.1 12.2.1-9.6-.2-18.8-.9-27.5l-2.8-40.8c0-.3-.3-.5-.6-.5h-13.1c-.3 0-.5.2-.5.4l-28 102.2c0 .2 0 .3.1.5.1.1.3.2.4.2h13.9c.3 0 .5-.2.5-.4l11.5-44.6c.4-1.3.7-2.4.9-3.5.3-1 .5-1.9.6-2.6l2.7-12.7 1.4-6.8c-.1 3.7-.2 7.3-.2 10.8.1 4.5.2 8.9.5 13.2l3.2 46c0 .3.3.5.6.5h13.2c.3 0 .5-.2.5-.4l28-102.2c0-.1 0-.3-.1-.4z"/><path d="m463.7 136c-.1-.1-.3-.2-.4-.2h-12.1c-.3 0-.5.2-.5.4-2.3 8.6-6.1 12.9-11.2 12.9-1.5 0-2.6-.5-3.4-1.5-2.2-2.7-1.9-9.3.9-19.4h29.2c.3 0 .5-.2.5-.4l.4-1.6c4.3-15.7 4.2-26.6-.2-32.2-2.5-3.2-6.3-4.8-11.5-4.8-7.4 0-13.7 3-18.8 8.9s-9.3 15-12.7 27.1c-1.7 6.1-2.7 11.4-3.1 15.9s-.1 8.2.9 11.1c1 3 2.7 5.2 5.2 6.6 2.4 1.4 5.5 2.1 9.4 2.1 12.8 0 22-8.3 27.5-24.5 0-.1 0-.3-.1-.4zm-11.6-34.9c2.4 0 3.7 1.1 4.1 3.4.5 2.1 0 6.7-1.3 13.5h-15.2c2.4-6.7 4.4-11.2 6.1-13.3 1.7-2.5 3.8-3.6 6.3-3.6z"/><path d="m502.5 129.5c-.5-1.5-1.4-3-2.6-4.7-1.2-1.6-2.8-3.4-4.7-5.2-4.6-4.3-6.6-8.1-5.7-11.1.3-1 .7-1.9 1.4-2.8s1.4-1.7 2.3-2.3 1.9-1.2 2.9-1.5c1-.4 2.1-.6 3.2-.6 3.3 0 6.2 1.1 8.6 3.3.1.1.3.2.5.1s.3-.2.4-.4l3.2-11.9c.1-.2 0-.5-.2-.6-3.3-2-7-3.1-11.1-3.1-5.7 0-11 1.8-15.5 5.4s-7.6 8.2-9.1 13.9c-1.2 4.2-1.2 7.8 0 10.9 1.2 2.9 4 6.5 8.4 10.6 1.2 1.2 2.3 2.3 3 3.3.8.9 1.3 1.8 1.6 2.5.6 1.4.6 3.2.1 5.1-1.5 5.5-5 8.1-10.7 8.1-3.2 0-6.3-1.3-9.1-4-.1-.1-.3-.2-.5-.1s-.3.2-.4.4l-3.4 12.2c-.1.2 0 .5.2.6 3.3 2.2 7 3.3 10.8 3.3 6.2 0 11.7-1.9 16.4-5.6 4.7-3.8 8-8.8 9.7-15 1.2-4.3 1.3-7.9.3-10.8z"/><path d="m532 80.5c2.6 0 5-.9 7.3-2.6s3.8-3.9 4.4-6.4c.7-2.5.3-4.7-1-6.5-1.4-1.8-3.3-2.7-5.9-2.7-2.5 0-4.9.9-7.3 2.6-2.3 1.7-3.7 3.8-4.4 6.2-.7 2.6-.4 4.9.9 6.6 1.4 1.9 3.4 2.8 6 2.8z"/><path d="m536.2 91.6c-.1-.1-.3-.2-.4-.2h-13c-.3 0-.5.2-.5.4l-18.8 68.5c0 .2 0 .3.1.5.1.1.3.2.4.2h13c.3 0 .5-.2.5-.4l18.8-68.5c0-.2 0-.4-.1-.5z"/><path d="m586.9 90.5c-.1-.1-.3-.2-.4-.2h-12.9c-.3 0-.5.2-.5.4l-1.6 6c-1.9-5-5.4-7.5-10.4-7.5-6 0-11.2 2.9-15.5 8.6-4.3 5.6-8.1 14.5-11.3 26.4-3.4 12.5-4.6 21.8-3.5 27.7 1.2 6.1 4.8 9.2 10.9 9.2 3.1 0 5.9-.7 8.2-2.2 1.8-1.2 3.9-3.1 6.1-5.8l-1.7 6.2c0 .2 0 .3.1.5.1.1.3.2.4.2h12.9c.3 0 .5-.2.5-.4l18.8-68.6c.1-.1 0-.3-.1-.5zm-22.9 34.5c-2.2 8.2-4.6 14.3-6.9 18.2-2.2 3.5-4.7 5.3-7.4 5.3-2.8 0-4.4-1.6-4.6-4.9-.2-3.5.9-9.8 3.3-18.7s4.7-15 6.9-18.2c2.2-3.3 4.7-5 7.6-5 2.6 0 4 1.7 4.2 5.1.2 3.9-.8 10-3.1 18.2z"/></g></g><path d="m85.2 72.3-73.3 34.1 73.3 54.6z" fill="#00aeef"/><path d="m124.3 18.3-39.1 18.2v124.5z" fill="#40444e"/></svg>